<?xml version="1.0" standalone="no"?>
<!DOCTYPE svg PUBLIC "-//W3C//DTD SVG 20010904//EN"
 "http://www.w3.org/TR/2001/REC-SVG-20010904/DTD/svg10.dtd">
<svg version="1.0" xmlns="http://www.w3.org/2000/svg"
 width="200px" viewBox="0 0 500.000000 500.000000"
 preserveAspectRatio="xMidYMid meet">

<g transform="translate(0.000000,500.000000) scale(0.100000,-0.100000)"
fill="#ba0027" stroke="none">
<path d="M2305 4210 c-603 -67 -1153 -476 -1396 -1040 -165 -382 -183 -837
-50 -1242 42 -126 147 -333 228 -448 86 -121 290 -325 413 -413 115 -81 321
-186 447 -226 123 -40 308 -78 421 -87 l92 -7 0 50 0 50 183 7 c100 3 250 6
334 6 l152 -1 83 36 c46 19 106 49 133 65 l50 30 -467 0 -468 0 0 58 0 59 383
6 c210 4 464 7 565 7 l182 0 91 82 c164 147 290 314 383 510 192 400 230 835
113 1258 -51 181 -158 403 -264 546 -66 88 -236 265 -309 320 l-37 29 -231 -3
c-127 -2 -376 0 -553 4 l-323 6 0 59 0 59 457 0 c517 0 493 -6 311 78 l-103
47 -330 5 -330 5 -3 48 -3 47 -42 -1 c-23 -1 -73 -5 -112 -9z m1235 -489 c0
-4 -24 -31 -54 -60 l-55 -51 -485 0 -486 0 0 53 c0 30 3 57 7 60 10 10 1073 8
1073 -2z m-410 -254 c0 -16 -177 -72 -290 -92 -83 -15 -283 -35 -347 -35 l-33
0 0 65 0 65 218 3 c119 1 270 3 335 5 89 1 117 -1 117 -11z m-680 -306 c0 -27
3 -56 6 -65 6 -14 -28 -16 -337 -15 -379 1 -378 0 -194 54 144 42 244 56 503
73 20 2 22 -2 22 -47z m0 -280 c0 -52 -2 -59 -22 -65 -37 -9 -1046 -7 -1052 3
-3 5 21 34 55 65 l60 56 480 0 479 0 0 -59z m1250 -106 c51 -26 90 -93 93
-158 2 -45 -11 -55 -57 -43 -18 4 -25 15 -30 45 -13 83 -92 124 -165 86 -56
-29 -75 -87 -74 -236 2 -195 27 -247 122 -257 45 -4 53 -2 79 25 19 18 32 45
37 71 l7 42 45 0 46 0 -7 -41 c-13 -82 -60 -144 -125 -164 -39 -12 -139 -6
-170 9 -35 19 -76 66 -99 115 -13 29 -16 68 -17 196 0 155 1 162 27 212 32 60
78 99 134 112 45 11 118 5 154 -14z m-749 -27 c6 -24 35 -130 65 -237 30 -107
54 -201 54 -209 0 -45 25 23 79 219 81 291 72 271 123 267 24 -2 42 -7 42 -13
-2 -10 -83 -277 -156 -507 l-40 -128 -33 0 c-19 0 -36 4 -39 8 -3 5 -28 83
-56 173 -28 90 -71 227 -96 305 -24 78 -44 146 -44 153 0 6 18 11 45 11 44 0
44 -1 56 -42z m-499 -124 c1 -31 1 -58 -1 -60 -2 -2 -278 -4 -612 -4 l-607 0
9 41 c20 87 -45 79 618 79 l589 0 4 -56z m6 -266 l3 -58 -596 0 -595 0 -11 28
c-6 15 -13 42 -16 60 l-6 32 609 -2 609 -3 3 -57z m-8 -255 l0 -63 -479 0
-480 0 -60 56 c-34 31 -59 59 -57 63 2 3 245 6 540 6 l536 0 0 -62z m0 -268
l0 -65 -97 5 c-98 6 -258 27 -343 46 -80 17 -220 62 -220 71 0 4 149 8 330 8
l330 0 0 -65z m321 -220 c100 -16 274 -58 324 -79 39 -17 49 -42 13 -32 -13 3
-164 6 -335 6 l-313 0 0 66 0 67 113 -7 c61 -4 151 -14 198 -21z m715 -299
c37 -34 55 -57 49 -63 -5 -4 -250 -7 -542 -5 l-533 4 0 59 0 59 483 0 484 0
59 -54z"/>
</g>
</svg>
